<?xml version="1.0" encoding="UTF-8" standalone="no"?>
<!-- Created with Inkscape (http://www.inkscape.org/) -->
<svg xmlns:dc="http://purl.org/dc/elements/1.1/" xmlns:cc="http://creativecommons.org/ns#" xmlns:rdf="http://www.w3.org/1999/02/22-rdf-syntax-ns#" xmlns:svg="http://www.w3.org/2000/svg" xmlns="http://www.w3.org/2000/svg" version="1.1" width="114" height="80" id="svg2">
  <defs id="defs4"/>
  <metadata id="metadata7">
    <rdf:RDF>
      <cc:Work rdf:about="">
        <dc:format>image/svg+xml</dc:format>
        <dc:type rdf:resource="http://purl.org/dc/dcmitype/StillImage"/>
        <dc:title/>
      </cc:Work>
    </rdf:RDF>
  </metadata>
  <g transform="matrix(0.03656065,0,0,-0.03844941,-6.6518379,87.888437)" id="g3051" style="fill:#ffffff">
    <path d="m 712.457,623.672 0,199.687 26.352,0 0,-175.961 87.339,0 0,-23.726 -113.691,0" id="path3053" style="fill:#ffffff;fill-opacity:1;fill-rule:nonzero;stroke:none"/>
    <path d="m 906.586,747.289 c -11.133,0 -20.555,-3.617 -28.074,-10.859 -7.242,-6.84 -11.301,-15.371 -12.258,-25.571 l 78.219,0 c 0,10.102 -3.157,18.539 -9.532,25.332 -6.894,7.399 -16.418,11.098 -28.355,11.098 z m 60.84,-54.648 -101.824,0 c 0,-16.532 4.515,-29.243 13.543,-38.082 8.007,-7.809 18.289,-11.637 30.867,-11.637 14.351,0 26.281,4.16 35.929,12.527 l 10.504,-18.07 c -3.863,-3.918 -9.769,-7.25 -17.797,-10.059 -10.062,-3.648 -21.199,-5.531 -33.527,-5.531 -17.75,0 -32.84,6.063 -45.211,18.09 -13.801,13.262 -20.715,31.121 -20.715,53.582 0,23.269 7.071,41.961 21.254,56.019 12.641,12.61 27.641,18.911 44.965,18.911 20.137,0 35.902,-5.653 47.418,-17.051 10.977,-10.918 16.547,-25.352 16.547,-43.418 0,-5.543 -0.672,-10.602 -1.953,-15.281" id="path3055" style="fill:#ffffff;fill-opacity:1;fill-rule:nonzero;stroke:none"/>
    <path d="m 1026.53,818.359 c 4.31,0 8.02,-1.488 11.03,-4.519 3.07,-3.008 4.52,-6.692 4.52,-10.91 0,-4.258 -1.45,-7.961 -4.52,-11.02 -3.01,-2.988 -6.72,-4.551 -11.03,-4.551 -4.15,0 -7.85,1.563 -10.87,4.551 -3.03,3.059 -4.53,6.762 -4.53,11.02 0,4.359 1.45,7.961 4.47,10.992 2.98,2.949 6.61,4.437 10.93,4.437 z m -10.03,-194.687 0,120.199 -19.391,0 0,21.117 44.421,0 0,-141.316 -25.03,0" id="path3057" style="fill:#ffffff;fill-opacity:1;fill-rule:nonzero;stroke:none"/>
    <path d="m 1115.29,735.391 0,-81.52 c 0,-1.43 3.1,-3.723 9.36,-6.961 6.25,-3.16 11.02,-4.769 14.26,-4.769 17.05,0 29.31,4.07 36.68,12.238 7.39,8.191 11.05,21.93 11.05,41.211 0,16.012 -4.3,28.492 -12.92,37.461 -8.62,8.91 -20.22,13.461 -34.81,13.461 -3.08,0 -7.37,-1.364 -12.87,-4.012 -5.53,-2.59 -9.12,-4.961 -10.75,-7.109 z m -3.69,-101.61 -8.86,-12.761 -12.53,0 0,203.16 25.08,0 0,-69.68 c 2.33,3.301 6.84,6.309 13.36,9.02 6.6,2.679 13,4.101 19.33,4.101 19.38,0 35.02,-6.691 47.05,-20.062 11.97,-13.43 18,-30.289 18,-50.668 0,-23.571 -6.05,-42.121 -18.1,-55.61 -12.05,-13.531 -28.36,-20.261 -48.92,-20.261 -6.69,0 -13.19,1.218 -19.69,3.73 -6.46,2.539 -11.42,5.551 -14.72,9.031" id="path3059" style="fill:#ffffff;fill-opacity:1;fill-rule:nonzero;stroke:none"/>
    <path d="m 1333.96,623.672 0,82.187 c 0,15.02 -2.26,25.571 -6.78,31.563 -4.52,6.078 -12.13,9.09 -22.75,9.09 -5.69,0 -11.71,-1.742 -17.93,-5.153 -6.29,-3.429 -11.08,-7.66 -14.38,-12.679 l 0,-105.008 -25.08,0 0,141.316 17.13,0 7.95,-18.25 c 8.22,13.922 21.78,20.883 40.49,20.883 30.95,0 46.4,-18.82 46.4,-56.519 l 0,-87.43 -25.05,0" id="path3061" style="fill:#ffffff;fill-opacity:1;fill-rule:nonzero;stroke:none"/>
    <path d="m 1421.13,818.359 c 4.32,0 7.97,-1.488 11.03,-4.519 3.06,-3.008 4.52,-6.692 4.52,-10.91 0,-4.258 -1.46,-7.961 -4.52,-11.02 -3.06,-2.988 -6.71,-4.551 -11.03,-4.551 -4.24,0 -7.86,1.563 -10.93,4.551 -2.98,3.059 -4.49,6.762 -4.49,11.02 0,4.359 1.48,7.961 4.49,10.992 2.97,2.949 6.63,4.437 10.93,4.437 z m -10.08,-194.687 0,120.199 -19.4,0 0,21.117 44.46,0 0,-141.316 -25.06,0" id="path3063" style="fill:#ffffff;fill-opacity:1;fill-rule:nonzero;stroke:none"/>
    <path d="m 1517.35,646.109 78.34,0 0,-22.437 -117.71,0 0,6.566 80.35,112.262 -79,0 0,22.488 115.59,0 0,-7.117 -77.57,-111.762" id="path3065" style="fill:#ffffff;fill-opacity:1;fill-rule:nonzero;stroke:none"/>
    <path d="M 853.23,518.238 842.281,496.5 c -13.312,9.832 -26.343,14.75 -39.09,14.75 -20.226,0 -36.203,-7.129 -47.875,-21.371 -11.66,-14.231 -17.527,-33.109 -17.527,-56.59 0,-22.34 5.711,-40.328 17.188,-53.969 11.527,-13.648 27.148,-20.441 46.921,-20.441 14.04,0 25.5,4.223 34.149,12.633 l 0,45.289 -26.746,0 0,22.429 53.156,0 0,-84.191 c -7.023,-6.008 -16.887,-10.777 -29.484,-14.437 -12.489,-3.614 -24.727,-5.461 -36.59,-5.461 -26.711,0 -47.735,9.031 -63.18,27.058 -15.394,18.09 -23.129,42.102 -23.129,72.153 0,29.886 8.457,54.16 25.41,72.757 16.922,18.653 39.782,27.879 68.536,27.903 20.136,0 36.562,-5.614 49.21,-16.774" id="path3067" style="fill:#ffffff;fill-opacity:1;fill-rule:nonzero;stroke:none"/>
    <path d="m 960.082,461.25 c -11.156,0 -20.516,-3.59 -28.105,-10.828 -7.207,-6.832 -11.301,-15.383 -12.297,-25.582 l 78.304,0 c 0,10.09 -3.183,18.57 -9.484,25.351 -6.98,7.368 -16.453,11.059 -28.418,11.059 z m 60.838,-54.609 -101.857,0 c 0,-16.532 4.515,-29.262 13.593,-38.09 8.004,-7.789 18.317,-11.672 30.883,-11.672 14.305,0 26.27,4.16 35.875,12.5 l 10.576,-18.047 c -3.86,-3.871 -9.81,-7.211 -17.857,-10.031 -9.992,-3.672 -21.188,-5.531 -33.496,-5.531 -17.77,0 -32.84,6.05 -45.235,18.101 -13.824,13.27 -20.726,31.098 -20.726,53.52 0,23.359 7.094,42.019 21.265,56.14 12.641,12.539 27.657,18.821 44.981,18.821 20.125,0 35.945,-5.641 47.368,-17.02 11.09,-10.91 16.62,-25.383 16.62,-43.391 0,-5.55 -0.68,-10.609 -1.99,-15.3" id="path3069" style="fill:#ffffff;fill-opacity:1;fill-rule:nonzero;stroke:none"/>
    <path d="m 1224.18,338.398 0,89.481 c 0,22.242 -9.68,33.371 -28.94,33.371 -6.06,0 -11.77,-1.871 -17,-5.609 -5.33,-3.743 -8.9,-7.969 -10.83,-12.711 l 0,-104.532 -25.1,0 0,100.434 c 0,6.949 -2.6,12.418 -7.84,16.43 -5.18,3.976 -12.13,5.988 -20.79,5.988 -4.97,0 -10.33,-1.949 -16.01,-5.789 -5.69,-3.879 -9.7,-8.172 -12.06,-12.813 l 0,-104.25 -25.07,0 0,141.332 16.35,0 8.32,-16.41 c 9.65,12.711 21.78,19.032 36.28,19.032 20.2,0 34.39,-6.282 42.48,-18.821 2.8,5.309 8.04,9.821 15.69,13.41 7.66,3.661 15.53,5.411 23.6,5.411 14.59,0 25.93,-4.352 33.92,-12.954 8.01,-8.718 12.08,-20.828 12.08,-36.519 l 0,-94.481 -25.08,0" id="path3071" style="fill:#ffffff;fill-opacity:1;fill-rule:nonzero;stroke:none"/>
    <path d="m 1355.48,461.25 c -11.2,0 -20.48,-3.59 -28.07,-10.828 -7.22,-6.832 -11.37,-15.383 -12.27,-25.582 l 78.19,0 c 0,10.09 -3.15,18.57 -9.44,25.351 -6.96,7.368 -16.47,11.059 -28.41,11.059 z m 60.84,-54.609 -101.85,0 c 0,-16.532 4.54,-29.262 13.58,-38.09 8,-7.789 18.3,-11.672 30.88,-11.672 14.31,0 26.27,4.16 35.9,12.5 l 10.5,-18.047 c -3.8,-3.871 -9.71,-7.211 -17.77,-10.031 -10.03,-3.672 -21.19,-5.531 -33.47,-5.531 -17.84,0 -32.88,6.05 -45.31,18.101 -13.77,13.27 -20.72,31.098 -20.72,53.52 0,23.359 7.07,42.019 21.26,56.14 12.63,12.539 27.65,18.821 44.98,18.821 20.2,0 35.95,-5.641 47.36,-17.02 11.08,-10.91 16.66,-25.383 16.66,-43.391 0,-5.55 -0.68,-10.609 -2,-15.3" id="path3073" style="fill:#ffffff;fill-opacity:1;fill-rule:nonzero;stroke:none"/>
    <path d="m 1476.11,533.148 c 4.29,0 7.97,-1.507 11,-4.519 3.05,-3.059 4.58,-6.688 4.58,-10.879 0,-4.371 -1.53,-7.98 -4.58,-11.02 -3.03,-3.05 -6.71,-4.589 -11,-4.589 -4.19,0 -7.85,1.539 -10.91,4.589 -3.03,3.032 -4.53,6.649 -4.53,11.02 0,4.289 1.5,7.922 4.48,10.949 3.02,2.981 6.66,4.449 10.96,4.449 z m -10.09,-194.75 0,120.25 -19.37,0 0,21.082 44.48,0 0,-141.332 -25.11,0" id="path3075" style="fill:#ffffff;fill-opacity:1;fill-rule:nonzero;stroke:none"/>
    <path d="m 1629.72,338.398 0,82.231 c 0,15.09 -2.28,25.519 -6.81,31.601 -4.55,6 -12.14,9.02 -22.77,9.02 -5.7,0 -11.64,-1.738 -17.97,-5.18 -6.22,-3.39 -11.03,-7.64 -14.33,-12.64 l 0,-105.032 -25.13,0 0,141.332 17.17,0 7.96,-18.179 c 8.24,13.871 21.77,20.801 40.47,20.801 30.96,0 46.42,-18.782 46.42,-56.481 l 0,-87.473 -25.01,0" id="path3077" style="fill:#ffffff;fill-opacity:1;fill-rule:nonzero;stroke:none"/>
    <path d="m 1697.2,346.879 8.93,23.73 c 13.96,-9.179 25.21,-13.73 33.73,-13.73 15.49,0 23.24,6.543 23.24,19.519 0,9.352 -7.47,17.383 -22.43,24.012 -11.55,5.34 -19.34,9.309 -23.28,12.039 -4.01,2.692 -7.5,5.832 -10.46,9.301 -2.92,3.461 -5.1,7.148 -6.59,11.051 -1.43,3.91 -2.15,8.109 -2.15,12.609 0,11.602 4.25,20.68 12.66,27.219 8.45,6.492 19.52,9.723 33.11,9.723 10.32,0 23.28,-3.231 38.94,-9.723 l -7.1,-23.27 c -9.98,7.93 -19.94,11.891 -29.99,11.891 -5.95,0 -11.01,-1.352 -15.1,-4.238 -4.08,-2.821 -6.12,-6.352 -6.12,-10.66 0,-9.082 5.14,-15.942 15.44,-20.571 l 17.91,-8.191 c 11.01,-5 19.02,-10.731 24.04,-17.18 5,-6.398 7.52,-14.449 7.52,-24.14 0,-12.598 -4.44,-22.571 -13.34,-29.75 -8.89,-7.192 -21.19,-10.739 -36.93,-10.739 -14.87,0 -28.84,3.68 -42.03,11.098" id="path3079" style="fill:#ffffff;fill-opacity:1;fill-rule:nonzero;stroke:none"/>
    <path d="m 1927.78,468.23 -12.37,-17.652 c -2.58,2.512 -7.04,4.981 -13.54,7.231 -6.45,2.3 -12.82,3.441 -19.03,3.441 -13.69,0 -24.46,-4.789 -32.46,-14.32 -8.02,-9.551 -12.04,-22.629 -12.04,-39.211 0,-16.571 4.1,-29.149 12.28,-37.84 8.18,-8.68 19.49,-13 34.06,-13 11.23,0 22.54,4.32 33.99,13.07 l 9.89,-21.129 c -13.44,-8.691 -30.06,-13.039 -49.95,-13.039 -19.27,0 -35.2,6.449 -47.78,19.367 -12.62,12.954 -18.85,30.454 -18.85,52.571 0,22.48 6.47,40.543 19.62,54.203 13.01,13.637 30.88,20.43 53.55,20.43 7.34,0 15.26,-1.551 23.81,-4.563 8.53,-3.117 14.77,-6.277 18.82,-9.559" id="path3081" style="fill:#ffffff;fill-opacity:1;fill-rule:nonzero;stroke:none"/>
    <path d="m 2051.81,338.398 0,88.813 c 0,10.621 -2.58,18.879 -7.77,24.898 -5.19,6.121 -12.51,9.141 -21.93,9.141 -6,0 -12.16,-1.738 -18.22,-5.34 -6.14,-3.582 -10.79,-7.762 -14.1,-12.48 l 0,-105.032 -25.04,0 0,199.274 25.04,0 0,-73.512 c 3.36,5.192 8.76,9.52 16.2,13.031 7.38,3.457 15.09,5.161 23.01,5.161 14.97,0 26.63,-4.93 35.15,-14.762 8.49,-9.86 12.79,-23.36 12.79,-40.379 l 0,-88.813 -25.13,0" id="path3083" style="fill:#ffffff;fill-opacity:1;fill-rule:nonzero;stroke:none"/>
    <path d="m 2197.71,407.789 c -7.92,1.82 -13.45,2.66 -16.63,2.66 -12.62,0 -22.98,-3.23 -30.98,-9.758 -7.99,-6.519 -12.01,-14.23 -12.01,-23.062 0,-14.699 8.66,-22.078 25.96,-22.078 12.71,0 23.9,6.051 33.66,18.109 l 0,34.129 z m 2.35,-53.16 c -9.96,-12.547 -25.34,-18.848 -46.01,-18.848 -11.13,0 -20.64,4.008 -28.89,12.059 -8.08,8.031 -12.11,18.051 -12.11,30.051 0,14.3 6.28,26.41 18.77,36.3 12.56,9.93 28.52,14.868 47.96,14.868 5.26,0 11.26,-1.18 17.93,-3.45 0,22.891 -10.21,34.332 -30.6,34.332 -15.61,0 -27.69,-4.191 -36.12,-12.691 l -10.57,20.98 c 4.73,3.899 11.26,7.192 19.73,9.961 8.4,2.789 16.43,4.161 24.1,4.161 20.45,0 35.33,-4.602 44.62,-13.973 9.25,-9.348 13.92,-24.18 13.92,-44.469 l 0,-50.68 c 0,-12.39 3.69,-20.621 11.08,-24.8 l 0,-12.532 c -10.22,0 -17.86,1.454 -22.92,4.372 -5.06,2.878 -8.67,7.691 -10.89,14.359" id="path3085" style="fill:#ffffff;fill-opacity:1;fill-rule:nonzero;stroke:none"/>
    <path d="m 2342.82,515.211 c -5.21,1.769 -9.89,2.66 -14.3,2.66 -7.64,0 -13.97,-2.91 -18.94,-8.723 -4.99,-5.839 -7.46,-13.136 -7.46,-22.039 0,-2.347 0.23,-4.871 0.7,-7.379 l 28.75,0 0,-21.082 -28.75,0 0,-120.25 -25.12,0 0,120.25 -20.55,0 0,21.082 20.55,0 c 0,18.09 4.49,32.18 13.39,42.469 8.83,10.321 20.62,15.473 35.18,15.473 7.33,0 15.14,-1.371 23.53,-3.961 l -6.98,-18.5" id="path3087" style="fill:#ffffff;fill-opacity:1;fill-rule:nonzero;stroke:none"/>
    <path d="m 2378.69,459.941 -16.35,0 0,19.789 16.35,0 0,29.54 25.12,9.64 0,-39.18 38.74,0 0,-19.789 -38.74,0 0,-70.203 c 0,-11.847 1.98,-20.359 6,-25.308 4,-5.059 10.42,-7.551 19.29,-7.551 6.44,0 13.08,1.703 19.95,4.91 l 3.73,-22.059 c -10.47,-2.648 -21.82,-3.949 -34.19,-3.949 -11.19,0 -20.67,4.16 -28.38,12.489 -7.61,8.332 -11.52,18.781 -11.52,31.468 l 0,80.203" id="path3089" style="fill:#ffffff;fill-opacity:1;fill-rule:nonzero;stroke:none"/>
    <path d="m 2227.5,1365.67 c -10.2,-16.58 -29.34,21.07 -66.2,-26.7 -15.31,-20.05 -5.1,-43.94 -23.9,-65.37 -21.11,-23.8 -41.08,-42.9 -24.9,23.91 16.51,67.85 8.13,39.56 16.15,68.72 8.68,32.2 39.68,143.73 50.3,167.07 15.1,33.01 18.9,48.46 59.41,108.61 0,0 28.38,35.87 33.59,41.14 21.92,22.44 103.66,61.45 64.53,-86.8 -31.14,-117.79 -55.63,-144.88 -108.98,-230.58 z m 5.02,-170.47 c -13.7,-52.7 -37.5,-136.45 -57.93,-162.45 -14.18,-17.99 -48.74,-69.941 -75.13,20.03 -26.3,90.11 37.37,167.07 37.37,167.07 0,0 26.89,35.82 44.49,35.79 21.71,0 64.92,-7.92 51.2,-60.44 z m -1404.586,19.06 c -14.676,-6.08 -55.536,27.59 -53.891,45.7 2.898,35.65 40.309,-0.27 83.414,1.35 43.594,1.83 -14.129,-40.43 -29.523,-47.05 z m 666.196,735.88 c 43.15,42.02 75.81,74.97 104.02,101.15 132.27,122.69 129.05,112.53 147.79,124.64 34.95,22.62 114.96,66.37 139.3,44.79 26.85,-23.89 15.56,-75.65 -26.44,-120.66 -43.22,-46.31 -167.55,-172.53 -276.71,-233.06 -73.62,-40.79 -367.68,-189.36 -87.96,83.14 z m 1133.56,-835.13 c 13.25,-16.99 46.52,-47.34 127.49,30.02 81.11,77.36 39.85,44.68 85.82,-54.83 46.04,-99.411 73.4,-43.76 75.89,-24.17 6.1,49.02 -10.47,144.67 -21.35,183.52 -9.2,32.49 -66.06,47.87 -88.43,31.11 -21.16,-15.63 -76.96,-79.9 -114.55,-92.51 -37.55,-12.59 -8.23,23.89 -18.56,83.85 -10.32,59.95 -32.99,86.88 -56.58,76.38 -15.86,-7.08 -49.54,-41.23 -66.94,-34.18 -37.11,14.79 -87.72,58.35 -189.58,6.41 -184.63,-94.14 -47.69,98.18 -47.69,98.18 0,0 136.3,213.49 64.52,323.5 -70.08,107.36 -194.68,-82.24 -225.5,-140.94 -41.2,-78.17 -73.26,-184.82 -108.5,-345.71 -20.46,-93.53 -133.91,-128.49 -162.42,-92.33 -30.71,39.01 -24.7,194.82 -131.47,127.69 -106.77,-67.03 -103.45,-197.98 -170.47,-50.73 -66.95,147.27 -133.48,50.99 -142.1,35.28 -11.9,-22.03 -4.88,-69.8 -22.97,-80.48 -20.44,-12.05 -46.85,29.49 -62.58,35.08 -16.88,5.81 -124.29,-84.6 -172.3,-178.87 -69.18,-135.901 -203.154,153.08 -192.268,173.54 9.407,17.84 269.548,380.63 300.838,433.56 33.22,56.21 57.3,74.51 77.48,77.55 20.19,2.99 267.65,63.54 457.75,254.54 161.1,161.92 145.47,212.57 112.36,256.91 -9.89,13.09 -24.6,22.94 -44.03,29.49 -96.48,32.6 -319.32,-174.38 -339.77,-194.04 -33.21,-31.95 -229.86,-251.76 -244.18,-281.34 -14.37,-29.61 -357.955,-20.94 -357.955,-20.94 -39.633,-20.05 4.921,-35.63 4.921,-35.63 0,0 155.124,-20.72 251.564,-15.71 83.44,4.33 34.95,-50.5 22.51,-66.46 -71.76,-91.93 -196.24,-288.28 -241.878,-342.35 -43.582,-51.72 -125.508,-2.72 -148.582,1.83 -23.617,4.65 -153.45,22.37 -122.715,-85.98 30.863,-108.37 129.086,-58.53 171.504,-68.2 12.957,-2.91 42.969,-16.99 50.289,-33.46 16.332,-36.34 37.347,-76.91 55.121,-104.47 29.581,-45.858 156.851,-168.479 243.641,-2.06 95.46,182.95 162.34,115.26 169.07,17.02 6.89,-98.189 38,-61.021 73.55,-44.76 35.41,16.25 3.98,84 6.61,173.17 2.56,89.23 83.26,-44.46 85.12,-80.18 1.44,-26.09 48.62,-29.91 97.32,-9.44 48.69,20.46 0.63,58.32 67.03,121.05 66.64,62.61 78.92,-80.72 94.39,-115.41 13.01,-28.99 77.81,-80.42 116.62,-5.99 34.14,65.47 103.46,43.78 104.44,-50.35 0.82,-78.408 57.84,-94.549 79.5,-95.26 7.76,-0.32 16.67,0.5 28.9,5.512 43.02,17.648 111.05,112.178 110.18,195.148 -1.47,140.86 227.51,163.53 211.16,115.73 -11.85,-34.36 -62.58,-135.86 -0.6,-133.58 61.92,2.27 35.57,55.31 92.64,116.32 56.97,60.98 33.44,-93.47 55.74,-122.03" id="path3091" style="fill:#ffffff;fill-opacity:1;fill-rule:nonzero;stroke:none"/>
    <path d="m 1867.87,1645.8 c -6.77,-86.96 46.76,-58 46.76,-58 99.54,52.84 19.36,99.15 19.36,99.15 0,0 -59.06,45.83 -66.12,-41.15" id="path3093" style="fill:#ffffff;fill-opacity:1;fill-rule:nonzero;stroke:none"/>
    <path d="m 3114.74,646.109 c 0,0 -103.57,-217.027 -116.55,-237 -15.67,-24.187 -96.3,-138.988 -217.04,-156.48 -120.8,-17.547 -180.7,29.762 -183.31,89.621 -2.62,57.109 37.59,95.809 170.19,160.148 297.14,144.192 310.59,152.34 310.59,152.34 21.36,8.512 62.64,36.223 36.12,-8.629 z m 21.6,529.521 c -0.31,-1.4 -0.74,-2.61 -1,-3.5 l 1,3.5 z m 180.77,-337.15 c -5.16,13.45 -18.79,30.719 -59.19,-18.89 -61.73,-75.969 -55.51,-30.07 -61.83,19.242 -1.08,8.328 -7.61,47.77 -35.76,62.719 -25.78,13.66 -131.2,48.57 -105.07,69.238 64.33,50.801 62.55,46.961 81.38,68.241 22.93,25.77 97.53,121.38 91.38,216.9 -7.06,111.11 -165.57,98.34 -165.57,98.34 -108.5,-16.69 -59.26,-111.51 15.8,-99.76 82.94,12.97 63.37,-59.7 58.09,-78.88 -0.03,-0.15 -8.68,-23.18 -26.32,-51.02 -23.5,-37.25 -59.13,-86.13 -81.05,-110.44 -14.22,-15.861 -97.15,-69.748 -37.31,-98.318 99.39,-47.313 176.74,-162.352 126.15,-193.821 -35.35,-22 -316.9,-152.34 -379.77,-180.14 -60.78,-26.961 -196.48,-75.922 -195.34,-206.961 1.28,-141.2 196.13,-140.078 238.97,-132.598 123.18,21.5 188.73,89.219 235.07,145.578 39.57,48.11 132.91,244.039 143.72,278.68 9.16,29.398 45.83,138.808 98.22,153.582 58.76,16.578 65.81,38.598 58.43,58.308" id="path3095" style="fill:#ffffff;fill-opacity:1;fill-rule:nonzero;stroke:none"/>
    <path d="m 3027.19,1602.94 c -26.44,10.28 -103.7,-30.85 -79.37,-97 24.9,-67.56 200.13,49.64 79.37,97" id="path3097" style="fill:#ffffff;fill-opacity:1;fill-rule:nonzero;stroke:none"/>
    <path d="m 321.715,2072.22 -16.992,90.1 -28.485,-89.27 -10.371,0 -29.375,89.27 -16.566,-90.1 -18.524,0 26.723,140.26 11.648,0 31.286,-102.35 28.671,102.35 11.543,0 28.985,-140.26 -18.543,0" id="path3099" style="fill:#ffffff;fill-opacity:1;fill-rule:nonzero;stroke:none"/>
    <path d="m 371.934,2209.31 c 3.05,0 5.64,-1.05 7.769,-3.18 2.156,-2.15 3.223,-4.7 3.223,-7.67 0,-3.05 -1.067,-5.63 -3.223,-7.75 -2.129,-2.17 -4.719,-3.22 -7.769,-3.22 -2.954,0 -5.543,1.05 -7.676,3.22 -2.149,2.12 -3.223,4.7 -3.223,7.75 0,3.04 1.074,5.61 3.199,7.72 2.094,2.09 4.657,3.13 7.7,3.13 z m -6.899,-137.15 0,84.68 -13.683,0 0,14.86 31.324,0 0,-99.54 -17.641,0" id="path3101" style="fill:#ffffff;fill-opacity:1;fill-rule:nonzero;stroke:none"/>
    <path d="m 419.82,2157.77 -11.519,0 0,13.93 11.519,0 0,20.8 17.676,6.8 0,-27.6 27.289,0 0,-13.93 -27.289,0 0,-49.45 c 0,-8.36 1.367,-14.34 4.227,-17.86 2.808,-3.51 7.332,-5.28 13.605,-5.28 4.5,0 9.16,1.14 14.031,3.44 l 2.598,-15.54 c -7.312,-1.85 -15.332,-2.77 -24.066,-2.77 -7.887,0 -14.516,2.92 -19.957,8.78 -5.391,5.85 -8.114,13.23 -8.114,22.16 l 0,56.52" id="path3103" style="fill:#ffffff;fill-opacity:1;fill-rule:nonzero;stroke:none"/>
    <path d="m 528.313,2160.25 c -6.383,0 -11.583,-2.26 -15.583,-6.77 -4.042,-4.52 -6.066,-9.99 -6.066,-16.41 0,-7.23 1.953,-13.19 5.84,-17.94 3.914,-4.74 9.152,-7.09 15.809,-7.09 6.496,0 11.574,2.3 15.257,6.91 3.68,4.59 5.496,10.64 5.496,18.12 0,6.42 -1.972,11.89 -5.941,16.41 -3.949,4.51 -8.887,6.77 -14.812,6.77 z m -37.469,-115.3 9.562,11.35 c 10.274,-6.87 19.766,-10.31 28.426,-10.31 8.004,0 14.293,1.39 18.938,4.14 4.617,2.76 6.914,6.17 6.914,10.27 0,8.07 -5.813,12.08 -17.481,12.08 -1.992,0 -5.594,-0.49 -10.773,-1.5 -5.203,-0.97 -9.266,-1.47 -12.16,-1.47 -14.125,0 -21.207,5.3 -21.207,15.98 0,3.28 1.66,9.01 4.968,11.66 3.348,2.68 7.434,4.59 12.305,5.78 -13.984,6.54 -20.965,17.95 -20.965,34.18 0,10.42 3.641,19.09 10.848,26.03 7.238,6.93 16.219,10.41 26.867,10.41 9.766,0 17.418,-2.02 22.941,-6.03 l 8.817,10.58 11.527,-10.86 -10.582,-7.99 c 4.527,-5.89 6.777,-13.58 6.777,-23.06 0,-10.04 -3.097,-18.46 -9.375,-25.26 -6.257,-6.82 -14.461,-10.73 -24.636,-11.72 l -12.629,-1.3 c -3.946,-0.47 -6.348,-1.31 -9.297,-2.35 -4.383,-1.56 -4.629,-4.68 -4.004,-7.1 0.66,-2.46 2.27,-4.34 8.32,-4.34 2.688,0 7.621,1.01 13.243,1.97 5.644,0.95 9.843,1.43 12.554,1.43 9.789,0 17.422,-2.33 22.934,-7.01 5.461,-4.67 8.195,-11.16 8.195,-19.45 0,-9.17 -4.101,-16.59 -12.328,-22.23 -8.191,-5.64 -18.609,-8.44 -31.168,-8.44 -6.445,0 -13.203,1.13 -20.344,3.43 -7.117,2.28 -12.855,7.83 -17.187,11.13" id="path3105" style="fill:#ffffff;fill-opacity:1;fill-rule:nonzero;stroke:none"/>
    <path d="m 594.137,2100.32 0,112.16 17.664,0 0,-109.18 c 0,-5.33 1.539,-9.52 4.601,-12.59 3.047,-3.07 7.075,-4.6 12.032,-4.6 l 0,-15.8 c -22.864,0 -34.297,10.01 -34.297,30.01" id="path3107" style="fill:#ffffff;fill-opacity:1;fill-rule:nonzero;stroke:none"/>
    <path d="m 667.105,2209.31 c 3.024,0 5.606,-1.05 7.754,-3.18 2.129,-2.15 3.204,-4.7 3.204,-7.67 0,-3.05 -1.075,-5.63 -3.204,-7.75 -2.148,-2.17 -4.73,-3.22 -7.754,-3.22 -2.98,0 -5.539,1.05 -7.687,3.22 -2.137,2.12 -3.211,4.7 -3.211,7.75 0,3.04 1.063,5.61 3.164,7.72 2.129,2.09 4.707,3.13 7.734,3.13 z m -6.933,-137.15 0,84.68 -13.68,0 0,14.86 31.336,0 0,-99.54 -17.656,0" id="path3109" style="fill:#ffffff;fill-opacity:1;fill-rule:nonzero;stroke:none"/>
    <path d="m 749.625,2158.69 c -7.844,0 -14.473,-2.55 -19.801,-7.62 -5.082,-4.84 -7.933,-10.87 -8.636,-18.03 l 55.117,0 c 0,7.11 -2.239,13.06 -6.711,17.85 -4.891,5.18 -11.531,7.8 -19.969,7.8 z m 42.859,-38.48 -71.738,0 c 0,-11.64 3.156,-20.6 9.535,-26.85 5.653,-5.45 12.895,-8.18 21.766,-8.18 10.105,0 18.539,2.93 25.262,8.8 l 7.457,-12.71 c -2.719,-2.73 -6.938,-5.07 -12.555,-7.07 -7.07,-2.59 -14.941,-3.89 -23.602,-3.89 -12.488,0 -23.14,4.24 -31.875,12.73 -9.738,9.35 -14.605,21.92 -14.605,37.73 0,16.41 5.004,29.59 14.976,39.5 8.926,8.85 19.489,13.28 31.688,13.28 14.199,0 25.316,-4 33.363,-11.98 7.809,-7.69 11.707,-17.88 11.707,-30.58 0,-3.9 -0.461,-7.49 -1.379,-10.78" id="path3111" style="fill:#ffffff;fill-opacity:1;fill-rule:nonzero;stroke:none"/>
    <path d="m 881.074,2148.63 c -4.476,6.71 -10.586,10.06 -18.332,10.06 -9.457,0 -17.172,-3.54 -22.992,-10.6 -5.855,-7.08 -8.773,-16.05 -8.773,-26.96 0,-23.98 10.886,-35.95 32.711,-35.95 2.761,0 6.109,0.88 10.023,2.65 3.926,1.76 6.363,3.63 7.363,5.63 l 0,55.17 z m 0,-76.39 0,7.37 c -6.133,-6.15 -15.094,-9.21 -26.781,-9.21 -12.461,0 -22.547,4.45 -30.293,13.38 -7.746,8.93 -11.605,20.81 -11.605,35.69 0,14.92 4.445,27.66 13.39,38.24 8.899,10.56 19.504,15.84 31.828,15.84 10.321,0 18.106,-2.42 23.461,-7.25 l 0,46.18 17.641,0 0,-140.24 -17.641,0" id="path3113" style="fill:#ffffff;fill-opacity:1;fill-rule:nonzero;stroke:none"/>
    <path d="m 1049.93,2148.63 c -4.46,6.71 -10.55,10.06 -18.32,10.06 -9.46,0 -17.16,-3.54 -22.97,-10.6 -5.87,-7.08 -8.792,-16.05 -8.792,-26.96 0,-23.98 10.872,-35.95 32.712,-35.95 2.77,0 6.13,0.88 10.02,2.65 3.93,1.76 6.36,3.63 7.35,5.63 l 0,55.17 z m 0,-76.39 0,7.37 c -6.15,-6.15 -15.07,-9.21 -26.77,-9.21 -12.45,0 -22.54,4.45 -30.277,13.38 -7.746,8.93 -11.617,20.81 -11.617,35.69 0,14.92 4.441,27.66 13.382,38.24 8.902,10.56 19.512,15.84 31.842,15.84 10.3,0 18.11,-2.42 23.44,-7.25 l 0,46.18 17.66,0 0,-140.24 -17.66,0" id="path3115" style="fill:#ffffff;fill-opacity:1;fill-rule:nonzero;stroke:none"/>
    <path d="m 1133.84,2158.69 c -7.89,0 -14.47,-2.55 -19.79,-7.62 -5.08,-4.84 -7.98,-10.87 -8.64,-18.03 l 55.1,0 c 0,7.11 -2.21,13.06 -6.7,17.85 -4.88,5.18 -11.54,7.8 -19.97,7.8 z m 42.83,-38.48 -71.74,0 c 0,-11.64 3.2,-20.6 9.58,-26.85 5.64,-5.45 12.89,-8.18 21.74,-8.18 10.09,0 18.54,2.93 25.29,8.8 l 7.43,-12.71 c -2.74,-2.73 -6.91,-5.07 -12.53,-7.07 -7.07,-2.59 -14.95,-3.89 -23.62,-3.89 -12.53,0 -23.13,4.24 -31.88,12.73 -9.73,9.35 -14.59,21.92 -14.59,37.73 0,16.41 4.98,29.59 14.96,39.5 8.93,8.85 19.49,13.28 31.71,13.28 14.17,0 25.3,-4 33.37,-11.98 7.77,-7.69 11.68,-17.88 11.68,-30.58 0,-3.9 -0.47,-7.49 -1.4,-10.78" id="path3117" style="fill:#ffffff;fill-opacity:1;fill-rule:nonzero;stroke:none"/>
    <path d="m 1253.48,2154.68 c -3.84,2.66 -7.7,4.01 -11.6,4.01 -6.27,0 -11.71,-2.89 -16.39,-8.65 -4.67,-5.77 -7.02,-12.7 -7.02,-20.82 l 0,-57.06 -17.67,0 0,99.54 17.67,0 0,-15.9 c 6.43,11.84 15.98,17.75 28.7,17.75 3.17,0 7.74,-0.57 13.64,-1.67 l -7.33,-17.2" id="path3119" style="fill:#ffffff;fill-opacity:1;fill-rule:nonzero;stroke:none"/>
  </g>
</svg>